<svg xmlns="http://www.w3.org/2000/svg" width="321" height="231" viewBox="0 0 321 231" fill="none">
<path d="M160.381 139.908C160.381 139.908 159.389 140.273 157.624 140.827" stroke="#E8EAF1" stroke-width="2.88" stroke-linecap="round"/>
<path d="M152.11 140.946C137.193 144.368 103.823 149.577 86.6263 132.949C66.6373 113.613 78.0899 72.1161 91.309 64.543" stroke="#E8EAF1" stroke-width="2.88" stroke-linecap="round" stroke-dasharray="8.47"/>
<path d="M93.2881 64.1275C94.1827 63.6079 95.1245 63.4886 96.0453 63.7783" stroke="#E8EAF1" stroke-width="2.88" stroke-linecap="round"/>
<path d="M252.29 94.873C252.29 94.873 253.34 95.5069 255.047 96.7112" stroke="#E8EAF1" stroke-width="2.88" stroke-linecap="round"/>
<path d="M258.911 99.4688C267.944 105.55 281.635 118.151 269.662 133.224C256.298 150.073 224.531 149.658 211.851 148.746" stroke="#E8EAF1" stroke-width="2.88" stroke-linecap="round" stroke-dasharray="8.46"/>
<path d="M209.093 148.795C207.352 148.465 206.336 148.18 206.336 148.18" stroke="#E8EAF1" stroke-width="2.88" stroke-linecap="round"/>
<path d="M24.3564 186.782H286.296C286.296 170.504 269.399 162.36 252.497 170.504C252.497 146.082 235.6 137.943 218.698 137.943L151.1 129.799L125.749 137.924H108.852C100.418 129.799 83.5013 137.924 83.5013 154.202C69.7643 146.899 57.858 158.369 58.1507 170.48C41.2536 162.36 32.805 170.499 24.3564 186.782Z" fill="#F4F6F8"/>
<path d="M295.395 186.782H307.343H295.395Z" fill="#8E99A4"/>
<path d="M295.395 186.782H307.343" stroke="#C6CBDB" stroke-width="2.88" stroke-linecap="round" stroke-linejoin="round"/>
<path d="M312.91 186.782H318.425H312.91Z" fill="#8E99A4"/>
<path d="M312.91 186.782H318.425" stroke="#C6CBDB" stroke-width="2.88" stroke-linecap="round" stroke-linejoin="round"/>
<path d="M22.4395 186.782H289.827H22.4395Z" fill="#8E99A4"/>
<path d="M22.4395 186.782H289.827" stroke="#C6CBDB" stroke-width="2.88" stroke-linecap="round" stroke-linejoin="round"/>
<path d="M201.254 59.2819C202.955 54.0979 208.535 51.2739 213.719 52.9743L256.078 66.8684C261.262 68.5688 264.086 74.1497 262.386 79.3336L257.372 94.6199C255.671 99.8039 250.09 102.628 244.907 100.927L202.548 87.0333C197.364 85.333 194.54 79.7521 196.24 74.5682L201.254 59.2819Z" fill="#E6ECF4"/>
<g style="mix-blend-mode:multiply" opacity="0.27">
<path d="M205.641 60.9798C205.931 60.0956 206.883 59.614 207.767 59.904L259.584 76.9004C260.468 77.1904 260.949 78.1422 260.659 79.0264L259.418 82.8111C259.128 83.6952 258.176 84.1769 257.292 83.8868L205.475 66.8905C204.591 66.6005 204.109 65.6486 204.399 64.7645L205.641 60.9798Z" fill="#DAE2EC"/>
</g>
<g style="mix-blend-mode:multiply" opacity="0.27">
<path d="M237.378 89.5431C237.845 88.1186 239.378 87.3426 240.803 87.8099L251.364 91.274C252.788 91.7413 253.564 93.2748 253.097 94.6992L252.498 96.5273C252.03 97.9518 250.497 98.7277 249.072 98.2605L238.511 94.7963C237.087 94.3291 236.311 92.7956 236.778 91.3711L237.378 89.5431Z" fill="#DAE2EC"/>
</g>
<path d="M89.4136 56.0744C87.3369 49.9177 90.6443 43.2432 96.801 41.1665L147.659 24.0112C153.816 21.9345 160.491 25.2419 162.567 31.3986L168.853 50.0345C170.93 56.1912 167.623 62.8657 161.466 64.9425L110.608 82.0977C104.451 84.1745 97.7765 80.867 95.6997 74.7103L89.4136 56.0744Z" fill="#F4F6F8"/>
<g style="mix-blend-mode:multiply" opacity="0.56">
<path d="M133.691 53.9331C134.219 47.6101 129.931 42.0907 124.114 41.6053C118.296 41.1199 113.153 45.8522 112.625 52.1752C112.098 58.4982 116.386 64.0175 122.203 64.5029C128.02 64.9884 133.163 60.2561 133.691 53.9331Z" fill="#F4F6F8"/>
</g>
<g style="mix-blend-mode:multiply" opacity="0.56">
<path d="M144.72 51.1762C145.248 44.8532 140.96 39.3339 135.143 38.8485C129.326 38.3631 124.182 43.0954 123.655 49.4184C123.127 55.7414 127.415 61.2607 133.232 61.7461C139.049 62.2315 144.193 57.4992 144.72 51.1762Z" fill="#F4F6F8"/>
</g>
<path d="M15.5577 186.782H2.69043H15.5577Z" fill="#8E99A4"/>
<path d="M15.5577 186.782H2.69043" stroke="#C6CBDB" stroke-width="2.88" stroke-linecap="round" stroke-linejoin="round"/>
<path d="M301.923 142.238C305.596 147.678 306.517 161.332 306.517 161.332L303.101 163.579C298.042 166.904 289.31 162.739 283.598 154.3C277.885 145.861 277.361 136.285 282.42 132.964L285.835 130.718C285.835 130.718 298.354 136.93 301.923 142.238Z" fill="#EBF1F7"/>
<path d="M306.341 160.8C311.411 157.424 311.074 148.008 305.587 139.77C300.101 131.531 291.544 127.589 286.474 130.965C281.404 134.341 281.741 143.757 287.228 151.996C292.714 160.234 301.271 164.176 306.341 160.8Z" fill="#F4F6F8"/>
<path d="M13.6347 153.514C11.1863 156.891 10.5703 165.377 10.5703 165.377L12.8479 166.77C16.2228 168.835 22.0461 166.247 25.8558 160.991C29.6656 155.736 29.9969 149.8 26.6426 147.735L24.3651 146.342C24.3651 146.342 16.0209 150.228 13.6347 153.514Z" fill="#EBF1F7"/>
<path d="M22.3592 159.099C26.0167 153.607 26.5841 147.558 23.6267 145.588C20.6692 143.619 15.3067 146.475 11.6493 151.967C7.99181 157.46 7.42435 163.509 10.3818 165.478C13.3393 167.447 18.7017 164.591 22.3592 159.099Z" fill="#F4F6F8"/>
<path d="M233.909 147.475V194.752C233.906 202.024 227.741 207.918 220.136 207.921H136.472C128.867 207.918 122.702 202.024 122.699 194.752V126.122C122.697 128.292 123.597 130.374 125.202 131.909C126.807 133.443 128.984 134.304 131.254 134.301H220.126C223.781 134.3 227.287 135.688 229.872 138.158C232.457 140.629 233.909 143.98 233.909 147.475Z" fill="#E8EAF1"/>
<path d="M217.365 127.992V135.313H131.305C126.552 135.313 122.699 131.61 122.699 127.041C122.699 122.473 126.552 118.77 131.305 118.77H207.775C210.32 118.77 212.76 119.741 214.558 121.471C216.357 123.201 217.367 125.546 217.365 127.992Z" fill="#E8EAF1"/>
<path d="M216.808 135.146V127.899C216.809 125.477 215.805 123.154 214.016 121.442C212.227 119.73 209.8 118.768 207.27 118.77H131.255C126.53 118.77 122.699 122.436 122.699 126.958C122.699 131.48 126.53 135.146 131.255 135.146H220.135C227.741 135.149 233.906 141.049 233.909 148.329V195.657C233.906 202.937 227.741 208.838 220.135 208.84H136.473C128.867 208.838 122.702 202.937 122.699 195.657V126.953" stroke="#C5D0D9" stroke-width="2.88" stroke-linecap="round" stroke-linejoin="round"/>
<g style="mix-blend-mode:screen" opacity="0.28">
<path d="M139.048 134.37V210.678H136.922C129.232 210.678 123.016 204.315 123.016 196.455V125.534C123.016 130.418 126.881 134.37 131.653 134.37H139.048Z" fill="#FCF5E3"/>
</g>
<path d="M217.365 127.073V134.394H131.305C126.552 134.394 122.699 130.691 122.699 126.122C122.699 121.554 126.552 117.851 131.305 117.851H207.775C210.32 117.851 212.76 118.822 214.558 120.552C216.357 122.282 217.367 124.627 217.365 127.073Z" fill="#D3D7E6"/>
<path d="M216.808 134.226V126.979C216.809 124.558 215.805 122.235 214.016 120.523C212.227 118.811 209.8 117.849 207.27 117.851H131.255C126.53 117.851 122.699 121.516 122.699 126.038C122.699 130.56 126.53 134.226 131.255 134.226H220.135C227.741 134.229 233.906 140.129 233.909 147.408V194.739C233.906 202.018 227.741 207.919 220.135 207.921H136.473C128.867 207.919 122.702 202.018 122.699 194.739V126.038" stroke="#C6CBDB" stroke-width="2.88" stroke-linecap="round" stroke-linejoin="round"/>
<g style="mix-blend-mode:multiply" opacity="0.41">
<path d="M205.097 163.805H235.747V183.106H205.097C200.198 183.106 196.227 179.318 196.227 174.645V172.279C196.223 170.033 197.155 167.877 198.819 166.288C200.483 164.698 202.742 163.805 205.097 163.805Z" fill="#E8EAF1"/>
</g>
<path d="M205.309 161.047H237.586V180.348H205.309C200.293 180.348 196.227 176.473 196.227 171.693V169.697C196.229 164.919 200.295 161.047 205.309 161.047Z" fill="#E8EAF1" stroke="#C6CBDB" stroke-width="2.88" stroke-linecap="round" stroke-linejoin="round"/>
<path d="M207.255 173.914C209.286 173.914 210.932 172.268 210.932 170.238C210.932 168.207 209.286 166.562 207.255 166.562C205.225 166.562 203.579 168.207 203.579 170.238C203.579 172.268 205.225 173.914 207.255 173.914Z" fill="#E8EAF1" stroke="#C6CBDB" stroke-width="2.88" stroke-linecap="round" stroke-linejoin="round"/>
<path d="M98.4824 105.902H47.3244C41.0522 105.902 35.3853 110.734 35.3853 116.698V138.908C35.3853 144.872 41.0522 149.704 47.3244 149.704H83.6572L97.427 160.129V149.704H98.4774C104.748 149.704 109.831 144.87 109.831 138.908V116.698C109.831 110.738 104.751 105.905 98.4824 105.902Z" fill="#FDD760" stroke="#FFC729" stroke-width="5.04"/>
<g style="mix-blend-mode:screen" opacity="0.28">
<path d="M47.3874 139.25V117.097C47.3874 111.149 52.9128 106.329 59.0283 106.329H47.324C41.2085 106.329 35.6831 111.149 35.6831 117.097V139.25C35.6831 145.199 41.2085 150.018 47.324 150.018H59.0283C52.9177 150.018 47.3874 145.199 47.3874 139.25Z" fill="#FCD66D"/>
</g>
<path d="M63.8774 137.151C69.3903 133.474 74.9048 133.474 80.421 137.151H63.8774Z" fill="#FDD760"/>
<path d="M63.8774 137.151C69.3903 133.474 74.9048 133.474 80.421 137.151" stroke="#FFC729" stroke-width="5.04" stroke-linecap="round"/>
<path d="M64.7969 120.607V123.365V120.607Z" fill="#FDD760"/>
<path d="M64.7969 120.607V123.365" stroke="#FFC729" stroke-width="5.04" stroke-linecap="round"/>
<path d="M79.5024 120.607V123.365V120.607Z" fill="#FDD760"/>
<path d="M79.5024 120.607V123.365" stroke="#FFC729" stroke-width="5.04" stroke-linecap="round"/>
<path fill-rule="evenodd" clip-rule="evenodd" d="M98.4824 105.902H47.3244C41.0522 105.902 35.3853 110.734 35.3853 116.698V138.908C35.3853 144.872 41.0522 149.704 47.3244 149.704H83.6572L97.427 160.129V149.704H98.4774C104.748 149.704 109.831 144.87 109.831 138.908V116.698C109.831 110.738 104.751 105.905 98.4824 105.902V105.902Z" stroke="#FFC729" stroke-width="5.04"/>
</svg>